HIERARCHY
ROOT Hips
{
	OFFSET -0.001795 -0.223333 0.028219
	CHANNELS 6 Xposition Yposition Zposition Zrotation Yrotation Xrotation 
	JOINT LeftUpLeg
	{
		OFFSET 0.069520 -0.091406 -0.006815
		CHANNELS 3 Zrotation Yrotation Xrotation
		JOINT LeftLeg
		{
			OFFSET 0.034277 -0.375199 -0.004496
			CHANNELS 3 Zrotation Yrotation Xrotation
			JOINT LeftFoot
			{
				OFFSET -0.013596 -0.397961 -0.043693
				CHANNELS 3 Zrotation Yrotation Xrotation
				JOINT LeftToe
				{
					OFFSET 0.026358 -0.055791 0.119288
					CHANNELS 3 Zrotation Yrotation Xrotation
					End Site
					{
						OFFSET 0.000000 0.000000 0.000000
					}
				}
			}
		}
	}
	JOINT RightUpLeg
	{
		OFFSET -0.067670 -0.090522 -0.004320
		CHANNELS 3 Zrotation Yrotation Xrotation
		JOINT RightLeg
		{
			OFFSET -0.038290 -0.382569 -0.008850
			CHANNELS 3 Zrotation Yrotation Xrotation
			JOINT RightFoot
			{
				OFFSET 0.015774 -0.398415 -0.042312
				CHANNELS 3 Zrotation Yrotation Xrotation
				JOINT RightToe
				{
					OFFSET -0.025372 -0.048144 0.123348
					CHANNELS 3 Zrotation Yrotation Xrotation
					End Site
					{
						OFFSET 0.000000 0.000000 0.000000
					}
				}
			}
		}
	}
	JOINT Spine
	{
		OFFSET -0.002533 0.108963 -0.026696
		CHANNELS 3 Zrotation Yrotation Xrotation
		JOINT Spine1
		{
			OFFSET 0.005487 0.135180 0.001092
			CHANNELS 3 Zrotation Yrotation Xrotation
			JOINT Spine2
			{
				OFFSET 0.001457 0.052922 0.025425
				CHANNELS 3 Zrotation Yrotation Xrotation
				JOINT Neck
				{
					OFFSET -0.002778 0.213870 -0.042857
					CHANNELS 3 Zrotation Yrotation Xrotation
					JOINT Head
					{
						OFFSET 0.005152 0.064970 0.051349
						CHANNELS 3 Zrotation Yrotation Xrotation
						End Site
						{
							OFFSET 0.000000 0.000000 0.000000
						}
					}
				}
				JOINT LeftShoulder
				{
					OFFSET 0.078845 0.121749 -0.034090
					CHANNELS 3 Zrotation Yrotation Xrotation
					JOINT LeftArm
					{
						OFFSET 0.090977 0.030469 -0.008868
						CHANNELS 3 Zrotation Yrotation Xrotation
						JOINT LeftForeArm
						{
							OFFSET 0.259612 -0.012772 -0.027456
							CHANNELS 3 Zrotation Yrotation Xrotation
							JOINT LeftHand
							{
								OFFSET 0.249234 0.008986 -0.001171
								CHANNELS 3 Zrotation Yrotation Xrotation
								End Site
								{
									OFFSET 0.000000 0.000000 0.000000
								}
							}
						}
					}
				}
				JOINT RightShoulder
				{
					OFFSET -0.081759 0.118833 -0.038615
					CHANNELS 3 Zrotation Yrotation Xrotation
					JOINT RightArm
					{
						OFFSET -0.096012 0.032551 -0.009143
						CHANNELS 3 Zrotation Yrotation Xrotation
						JOINT RightForeArm
						{
							OFFSET -0.253742 -0.013329 -0.021401
							CHANNELS 3 Zrotation Yrotation Xrotation
							JOINT RightHand
							{
								OFFSET -0.255298 0.007772 -0.005559
								CHANNELS 3 Zrotation Yrotation Xrotation
								End Site
								{
									OFFSET 0.000000 0.000000 0.000000
								}
							}
						}
					}
				}
			}
		}
	}
}
MOTION
Frames: 16
Frame Time: 0.050000
-0.064224 0.861624 0.020964 -6.619652 -21.915630 14.638539 10.581292 5.095156 -45.882199 -3.309599 6.334928 56.257926 4.776483 8.433367 -7.647189 0.000000 0.000000 0.000000 -15.982209 3.613686 -44.926413 24.906918 -5.588289 36.377762 -19.225838 -42.570870 9.224582 0.000000 0.000000 0.000000 6.988745 -1.009793 42.699338 -9.800584 2.236164 -29.933708 -1.077772 6.942298 28.782084 14.097717 -2.236192 -49.632283 0.000000 0.000000 0.000000 -31.381439 -16.546581 11.159287 -25.734008 -15.297016 -2.154536 1.258282 -54.637320 1.836489 0.000000 0.000000 0.000000 34.966291 3.321207 -1.835311 35.841318 13.415253 -1.463256 7.379432 69.499864 8.150036 0.000000 0.000000 0.000000 
-0.071109 0.865821 0.024522 -6.190790 -20.262601 14.020518 10.911230 4.592249 -44.777475 -3.290711 5.878527 55.887954 4.552668 8.191444 -6.134143 0.000000 0.000000 0.000000 -15.225512 3.458081 -44.846127 24.491579 -5.868375 37.597733 -19.129011 -42.211117 9.109603 0.000000 0.000000 0.000000 6.767542 -1.260807 41.793520 -9.748762 2.251637 -30.220812 -0.819619 6.193713 29.467673 12.293936 -1.870226 -48.734551 0.000000 0.000000 0.000000 -32.281813 -16.372777 11.241345 -26.254024 -14.683141 -2.321345 1.883834 -52.502512 1.449695 0.000000 0.000000 0.000000 34.555295 3.342114 -1.799830 36.410006 14.024556 -1.354997 8.454796 70.785938 9.157299 0.000000 0.000000 0.000000 
-0.079288 0.870015 0.029458 -6.034890 -19.770834 13.698805 11.340795 4.359995 -42.939397 -3.668354 5.816795 53.835628 4.585701 8.269678 -6.431163 0.000000 0.000000 0.000000 -13.873195 3.875631 -45.803599 24.675734 -6.030400 37.756985 -18.251828 -40.951835 8.433553 0.000000 0.000000 0.000000 6.339436 -1.213345 40.848483 -9.340082 2.189823 -29.035953 -1.027283 6.184413 28.166693 11.809876 -1.987559 -46.929013 0.000000 0.000000 0.000000 -32.207717 -15.674716 10.652790 -27.556848 -13.989407 -2.437328 -0.676963 -52.296435 2.784914 0.000000 0.000000 0.000000 36.081709 3.744676 -1.661007 35.483337 13.442859 -1.385763 11.383371 72.654494 11.595546 0.000000 0.000000 0.000000 
-0.088609 0.871890 0.035280 -5.028834 -18.873765 13.173377 11.142392 3.859145 -41.879261 -3.494581 5.474988 53.504280 4.389784 7.875902 -6.178011 0.000000 0.000000 0.000000 -13.500678 3.732746 -45.423575 24.440554 -5.936832 36.344675 -17.143195 -39.689964 6.381969 0.000000 0.000000 0.000000 6.426621 -1.402034 40.302859 -9.127330 2.155641 -29.679698 -1.588115 5.480597 29.317290 10.422981 -1.683515 -46.572122 0.000000 0.000000 0.000000 -32.299853 -15.566097 10.821708 -28.299746 -13.783757 -2.640049 0.577744 -51.750549 2.202905 0.000000 0.000000 0.000000 35.448740 4.486846 -1.159451 36.492340 14.475552 -1.197158 10.354690 73.492765 11.046821 0.000000 0.000000 0.000000 
-0.098509 0.870698 0.041735 -3.979584 -17.926876 12.123296 11.045644 3.476230 -40.999624 -4.250717 5.910012 54.270556 5.019543 9.375695 -5.835521 0.000000 0.000000 0.000000 -12.495549 3.593742 -43.559823 23.560170 -5.616123 35.739814 -18.214071 -41.147268 6.729959 0.000000 0.000000 0.000000 7.171600 -1.813879 40.889749 -9.510920 2.236931 -30.117561 -2.108625 5.201369 29.273558 11.692868 -2.255262 -45.860489 0.000000 0.000000 0.000000 -31.841313 -15.649829 10.696371 -30.052313 -13.781882 -2.710882 -1.447017 -51.518195 3.247074 0.000000 0.000000 0.000000 35.179274 4.129791 -1.256894 36.671614 14.460925 -1.242389 10.688234 74.094893 11.461343 0.000000 0.000000 0.000000 
-0.108062 0.869295 0.047996 -2.682793 -16.082695 11.157600 11.678679 3.478283 -41.999455 -5.393440 6.371736 55.961200 4.601776 8.969079 -2.479700 0.000000 0.000000 0.000000 -13.460596 2.871971 -42.903891 24.520697 -6.415914 36.300887 -18.903159 -41.540951 8.118312 0.000000 0.000000 0.000000 7.393341 -2.196020 40.475678 -8.209117 2.054767 -28.279175 -3.333867 5.871190 28.222265 12.278995 -2.279484 -45.388563 0.000000 0.000000 0.000000 -30.075658 -15.493919 9.617267 -32.473177 -13.252429 -2.702069 -2.916824 -52.572992 4.110891 0.000000 0.000000 0.000000 34.909211 3.462542 -0.942810 35.730348 15.160914 -1.196915 8.599670 74.118017 10.186293 0.000000 0.000000 0.000000 
-0.116425 0.867825 0.053713 -2.092618 -15.700657 11.015712 13.467266 4.562375 -44.448753 -6.907518 7.895720 59.978920 3.322621 6.982543 0.797934 0.000000 0.000000 0.000000 -13.393195 2.779028 -42.595469 24.068885 -6.369337 36.768844 -19.387914 -42.388172 7.814621 0.000000 0.000000 0.000000 7.560695 -2.318020 39.989975 -7.512507 1.930093 -27.859366 -3.212780 7.635713 27.848683 11.554194 -1.592244 -46.486360 0.000000 0.000000 0.000000 -31.468966 -15.093740 8.632395 -31.725401 -11.615994 -2.817262 -5.089647 -55.865390 5.376157 0.000000 0.000000 0.000000 35.302311 3.615503 0.115546 33.517175 15.869809 -1.269130 2.678200 73.802581 5.986946 0.000000 0.000000 0.000000 
-0.122576 0.866920 0.058751 -1.068536 -14.201718 10.651769 16.637393 6.078150 -46.864938 -10.498728 10.213185 61.151041 3.277327 7.984467 5.345259 0.000000 0.000000 0.000000 -15.370019 1.862671 -41.573164 25.820388 -7.324382 36.305944 -20.616622 -44.010330 8.285592 0.000000 0.000000 0.000000 8.472346 -2.892787 39.870669 -8.133230 2.093689 -27.709776 -3.020710 8.747660 28.243317 11.957277 -1.540462 -46.375384 0.000000 0.000000 0.000000 -31.452936 -16.039599 8.504682 -31.006740 -11.467780 -2.649900 -5.730351 -59.018815 5.923177 0.000000 0.000000 0.000000 34.513604 3.310514 0.898939 32.931718 17.824169 -1.120978 -1.334626 74.836056 3.553422 0.000000 0.000000 0.000000 
-0.126257 0.865779 0.063990 0.250614 -12.733646 10.265912 18.259008 6.668288 -48.025913 -12.395297 10.289019 57.380886 5.037207 11.418613 7.032582 0.000000 0.000000 0.000000 -17.222333 1.064703 -41.408590 26.749828 -8.165637 37.001289 -20.721531 -43.610684 9.319615 0.000000 0.000000 0.000000 8.458881 -3.126307 40.764222 -9.053803 2.313074 -27.864008 -3.282441 9.158214 27.809350 12.186031 -1.345586 -46.866046 0.000000 0.000000 0.000000 -32.273539 -16.473752 8.227757 -29.339385 -11.209687 -2.389366 -2.883954 -63.467237 4.500095 0.000000 0.000000 0.000000 32.971509 3.247198 1.484036 32.981987 18.839412 -0.963465 -7.603637 76.521931 -0.875903 0.000000 0.000000 0.000000 
-0.127056 0.864394 0.070044 0.826801 -11.124620 10.022582 18.510417 6.329111 -48.158926 -11.141366 7.505569 49.725287 6.514342 14.129898 9.251624 0.000000 0.000000 0.000000 -18.035804 0.510185 -40.174486 27.064312 -8.552144 36.550499 -22.082080 -45.431128 9.494428 0.000000 0.000000 0.000000 7.889254 -3.176546 41.128773 -8.969841 2.298424 -28.098044 -2.953125 9.638031 28.996126 14.710971 -2.081356 -47.386909 0.000000 0.000000 0.000000 -32.444542 -17.463738 8.428866 -28.618929 -11.584614 -2.231738 4.627297 -66.293559 -0.277573 0.000000 0.000000 0.000000 32.414408 4.872032 3.306992 32.136123 20.801838 -0.780327 -22.213400 76.818679 -12.045984 0.000000 0.000000 0.000000 
-0.124567 0.861930 0.077602 0.375429 -9.718586 10.303277 18.941336 6.062873 -47.897569 -9.210569 5.014787 42.572053 5.429222 12.631242 11.858749 0.000000 0.000000 0.000000 -18.677571 0.085538 -39.862105 28.249655 -9.284498 36.093376 -22.557917 -45.883481 9.791908 0.000000 0.000000 0.000000 7.165296 -3.195286 42.261837 -8.912910 2.261851 -28.388802 -2.721311 10.274772 28.315243 15.073296 -1.836508 -48.519195 0.000000 0.000000 0.000000 -31.729995 -17.575371 7.768419 -27.782185 -12.552935 -1.847137 8.830377 -67.596010 -3.325153 0.000000 0.000000 0.000000 33.067114 5.799474 4.644052 29.341936 23.004668 -0.600648 -38.649039 75.337266 -24.401156 0.000000 0.000000 0.000000 
-0.118583 0.857642 0.087365 -0.497165 -8.075426 11.165183 19.592199 5.892195 -48.026676 -9.084254 4.388942 39.912871 4.186233 10.923092 12.944138 0.000000 0.000000 0.000000 -19.408952 -0.404597 -40.359045 29.526032 -10.335881 36.484479 -23.361006 -46.489229 10.877261 0.000000 0.000000 0.000000 7.130678 -3.515658 42.461595 -8.798952 2.230873 -28.540489 -2.305134 10.364227 28.075743 17.168031 -2.235739 -49.688857 0.000000 0.000000 0.000000 -31.076203 -17.362615 7.220658 -28.146291 -13.375996 -1.630164 13.291087 -67.623774 -6.391023 0.000000 0.000000 0.000000 32.438737 6.164109 5.252180 28.883688 25.385067 -0.236458 -43.753196 74.287869 -27.600177 0.000000 0.000000 0.000000 
-0.108876 0.853425 0.099035 -1.711072 -8.225776 11.350959 20.763205 6.559238 -48.261573 -9.614975 4.828928 41.130614 3.893483 10.336225 12.096622 0.000000 0.000000 0.000000 -19.304883 -0.333497 -40.781787 29.903425 -10.812337 37.947402 -24.257150 -47.213489 12.051882 0.000000 0.000000 0.000000 6.545266 -3.275305 42.914031 -8.976790 2.210552 -29.524408 -0.859768 11.216422 28.590559 16.888772 -1.948401 -50.643510 0.000000 0.000000 0.000000 -31.970454 -17.298247 6.858694 -26.598046 -13.429248 -1.528938 12.601229 -68.086114 -6.104722 0.000000 0.000000 0.000000 33.446783 6.959032 6.355629 26.194882 27.288887 -0.337171 -53.728452 72.439898 -34.279896 0.000000 0.000000 0.000000 
-0.095971 0.849920 0.111710 -2.546892 -8.689244 12.004990 21.493322 7.135769 -48.633013 -9.976295 5.299312 42.681137 4.050860 10.177881 9.587422 0.000000 0.000000 0.000000 -19.418731 -0.250901 -41.448463 29.662354 -10.841956 38.893510 -24.691746 -47.750427 12.382102 0.000000 0.000000 0.000000 5.865137 -2.915922 42.997007 -8.889340 2.160548 -30.011674 -0.169548 11.887007 28.089960 17.320062 -1.882949 -51.387874 0.000000 0.000000 0.000000 -32.086005 -17.584203 6.825661 -26.148199 -13.024689 -1.497296 14.774229 -67.800534 -7.596754 0.000000 0.000000 0.000000 34.840612 7.727725 7.344445 24.177827 28.102387 -0.509315 -56.805206 72.134960 -36.527463 0.000000 0.000000 0.000000 
-0.080831 0.848501 0.123793 -3.142485 -9.058948 12.383668 21.150915 7.294105 -49.585468 -9.901343 5.774747 46.158439 4.140912 9.973288 7.351922 0.000000 0.000000 0.000000 -19.427418 -0.158433 -41.668656 29.184946 -10.674464 39.467512 -25.114597 -47.865623 13.456320 0.000000 0.000000 0.000000 5.262024 -2.593207 42.920095 -9.126003 2.190771 -30.032041 0.724548 12.480206 27.942016 17.867776 -1.944496 -51.767784 0.000000 0.000000 0.000000 -31.773955 -18.295905 7.121013 -26.243382 -13.622472 -1.349136 18.715241 -66.661992 -10.069172 0.000000 0.000000 0.000000 34.548112 8.158654 7.872956 23.478021 29.187126 -0.469576 -57.283233 71.992541 -36.690517 0.000000 0.000000 0.000000 
-0.064735 0.848151 0.134440 -3.788299 -9.681467 13.057905 20.994872 7.619208 -50.465199 -10.008875 6.254901 48.316320 4.140906 9.567177 5.101310 0.000000 0.000000 0.000000 -19.626337 -0.060072 -42.338628 28.503904 -10.354627 39.973457 -25.336476 -47.895281 14.240176 0.000000 0.000000 0.000000 4.563494 -2.189198 42.992460 -8.692755 2.084559 -30.322647 1.082393 13.270131 27.809149 19.347607 -2.264321 -52.368115 0.000000 0.000000 0.000000 -31.961525 -18.881893 7.327461 -25.370494 -13.861486 -1.252474 21.597839 -66.972954 -12.103514 0.000000 0.000000 0.000000 35.568705 8.590662 8.584277 21.393042 28.888078 -0.827171 -59.543208 72.133491 -38.808770 0.000000 0.000000 0.000000 
